/* XPM */
static char *bdd4ed86a5414b30819ca0c53070d92bWYwMCNrC6k2upr47[] = {
/* columns rows colors chars-per-pixel */
"64 64 57 1 ",
"  c black",
". c black",
"X c #989898",
"o c #7C7C7C",
"O c gray44",
"+ c #646464",
"@ c gray33",
"# c #484848",
"$ c #D0D0D0",
"% c gray22",
"& c #2C2C2C",
"* c #FCA85C",
"= c #FCF400",
"- c #FCA470",
"; c #FC7800",
": c #B4B4B4",
"> c #FC9C60",
", c #A86840",
"< c #E00000",
"1 c #BC0000",
"2 c #7C0000",
"3 c #D40000",
"4 c #C87C4C",
"5 c gray66",
"6 c gray55",
"7 c #B47044",
"8 c #885830",
"9 c #880000",
"0 c #A0643C",
"q c #0000B0",
"w c #E88C58",
"e c #FC7C7C",
"r c #80502C",
"t c #DC8854",
"y c #FC2020",
"u c #D08050",
"i c #FC0000",
"p c #000040",
"a c #000058",
"s c #BC7848",
"d c #9C6038",
"f c #00007C",
"g c #F0945C",
"h c #FCB080",
"j c #202020",
"k c #0000BC",
"l c #980000",
"z c #6C4824",
"x c #5C4020",
"c c #382C14",
"v c #000098",
"b c #000070",
"n c #B00000",
"m c #700000",
"M c #640000",
"N c black",
"B c #A40000",
/* pixels */
" ...............................................................",
" ...............................................................",
" ...............................................................",
" ...............................................................",
" ...............................................................",
" ...............................................................",
" ...............................................................",
" ...............................................................",
" ...............................................................",
" ...............................................................",
" ...............................................................",
" ...............................................................",
" ...............................................................",
" ...............................................................",
" ...............................................................",
" ...............................................................",
" ...............................................................",
" ...............................................................",
" ...............................................................",
" ...............................................................",
" ...............................................................",
" ...............................................................",
" ...............................................................",
" ...............................................................",
" ...............................................................",
" ...............................................................",
" ...............................................................",
" ...............................................................",
" ...............................................................",
" ...............................................................",
" ...............................................................",
" ...............................................................",
" ...............................................................",
" ...............................................................",
" ...............................................................",
" ...............................................................",
" ...............................................................",
" ...............................................................",
" ...............................................................",
" ...............................................................",
" ...............................................................",
" ...............................................................",
" ...............................................................",
" ...............................................................",
" ...............................................................",
" ...............................................................",
" ...............................................................",
" ...............................................................",
" ...............................................................",
" ........................XXoO+@#................................",
" .......................X$O+++@@#...............................",
" ......................XoO+@##%&#........*====*.................",
" ......................XoO@@##%&&....---------;;................",
" .....................X:oO@@#oO#%>--,,,,<12,,,3--4..............",
" ....................X::56oOo.>---77----------883-->>4..9...99..",
" .....................:60->>0@qqqq>>>7ww747>w>eer3t>y>>>4u......",
" ...................i190-488@%%ppaa7s7d7sqqff@@7r23uuuug>>>w>4..",
" ...............i1.....h,,.%%%%%%jaa48d8qkffff8222ll8887777z---0",
" ....................i1...%%%%%%%jaad8xcvb%%%ppf22lnnnl8888z,,,w",
" ........................%%%%%%%jjjxxcc.b%%%%%%ppfm992mmM.99....",
" ........................%%%%%jjjjcc....a%%%%%%%%pN.............",
" .........................%%jjj...........%%%%%%%%N....B99m.....",
" ...........................................%%%%%%..............",
"                                                                "
};
