/* XPM */
static char *_25e67ea038f4671e01c647dc5d5d1d6ijrQ71W1Z7LLtYXa[] = {
/* columns rows colors chars-per-pixel */
"64 64 50 1 ",
"  c black",
". c black",
"X c #880000",
"o c #202020",
"O c #B4B4B4",
"+ c #989898",
"@ c gray55",
"# c #646464",
"$ c gray33",
"% c #FC2020",
"& c #D0D0D0",
"* c #7C7C7C",
"= c #484848",
"- c gray22",
"; c #FC0000",
": c #C80000",
"> c gray44",
", c black",
"< c #D40000",
"1 c gray66",
"2 c #A80000",
"3 c #9C6038",
"4 c #5C4020",
"5 c #980000",
"6 c #C87C4C",
"7 c #FC9C60",
"8 c #744C28",
"9 c #BC7848",
"0 c #2C2C2C",
"q c #A86840",
"w c #000058",
"e c #0000B0",
"r c #0000A8",
"t c #00007C",
"y c #B47044",
"u c #000098",
"i c #885830",
"p c #A0643C",
"a c #382C14",
"s c #80502C",
"d c #483818",
"f c #D08050",
"g c #700000",
"h c #905C34",
"j c #403018",
"k c #6C4824",
"l c #DC8854",
"z c #BC0000",
"x c #F0945C",
"c c #E00000",
/* pixels */
"                                                                ",
" ...............................................................",
" ...............................................................",
" ...............................................................",
" ...............................................................",
" ...............................................................",
" ...............................................................",
" ...............................................................",
" ...............................................................",
" ...............................................................",
" ...............................................................",
" ...............................................................",
" ...............................................................",
" ...............................................................",
" ...............................................................",
" ...............................................................",
" ...............................................................",
" ...............................................................",
" ...............................................................",
" ...............................................................",
" ...............................................................",
" ...............................................................",
" ...............................................................",
" ...............................................................",
" ...............................................................",
" ...............................................................",
" ...............................................................",
" ...............................................................",
" ...............................................................",
" .......................................................X.......",
" ...............................................................",
" ...............................................................",
" ...............................................................",
" ...............................................................",
" ......................................o........................",
" .............................O+@@#$$...o...........%...X.......",
" ............................O&O*#$==-.o..................;:....",
" ...........................Oo@*#$=>@@>$..............X%..:X....",
" ...........................+@o#$=@>=,,--...............;....<..",
" ............................+o>@@,,,,,,-...........%X..........",
" ...........................+O1o,,,,,,.................2;.......",
" ...........................O-,,,,,o.................;.;2......;",
" ..........................*-,,,,,..........333334.............5",
" ...........................-,,,..........677777763776......<...",
" .......................................6777777777647776........",
" ......................................677889999777309777.......",
" .....................................6qwertw777977y,69933......",
" ....................................67---$uww77787y,69qiqi.....",
" ....................................77-----,,p778p8,pp8ai3i....",
" .................................677yy-----,,8pp8p8os8ad83i.:..",
" ............................wteet777f88----,,888440ggga48i3iX..",
" ...........................----wwwfffqq-----,4444dggaa4s8h3i...",
" ...........................-----,,,fhi88----,jjjjggps...hhii8..",
" ...........................-----,,,h88dd----,.ggg.g......hhi8..",
" ............................----,,,jjjj8d---..g.g.........hh88.",
" ............................-----,....7fp8....5.5.5.......hhs8.",
" ............................-----,.....pk.....<.5..X......kka..",
" .............................----,.....liy......5..z......638..",
" ..............................--,......6pi......:.........x6s..",
" ........................................yp......c........x6s...",
" ...............................................................",
" ...............................................................",
" ...............................................................",
" ..............................................................."
};
