/* XPM */
static char *cef3909327fa4cafe6a8d43f8d6b3e0e91d5ckLT1te4jq89[] = {
/* columns rows colors chars-per-pixel */
"128 128 47 1 ",
"  c None",
". c #2B230F",
"X c gray12",
"o c #2B230F",
"O c #373700",
"+ c #3B2F17",
"@ c #232323",
"# c #2F2F2F",
"$ c gray23",
"% c #43331B",
"& c #4B3B1B",
"* c #573F1F",
"= c #4F4F00",
"- c #6B6B00",
"; c #5F4323",
": c #6F4B27",
"> c #774F2B",
", c #4B4B4B",
"< c gray34",
"1 c #676767",
"2 c gray45",
"3 c gray50",
"4 c #83532F",
"5 c #8B5B33",
"6 c #935F37",
"7 c #9F633B",
"8 c #A3673F",
"9 c #AB6B43",
"0 c #B77347",
"q c #BF7B4B",
"w c #CB7F4F",
"e c #D38353",
"r c #DF8B57",
"t c #EB8F5B",
"y c #F3975F",
"u c #FF9F63",
"i c #FFA773",
"p c blue",
"a c #007FCF",
"s c gray56",
"d c #9B9B9B",
"f c #B7B7B7",
"g c #FFB383",
"h c #FFBF9F",
"j c #FFCFB3",
"k c LightGray",
"l c #EFEFEF",
/* pixels */
"                                                                                                                                ",
"                                                                                                                                ",
"                                                                                                                                ",
"                                                                                                                                ",
"                                                                                                                                ",
"                                                                                                                                ",
"                                                                                                                                ",
"                                                                                                                                ",
"                                                                                                                                ",
"                                                                                                                                ",
"                                                                                                                                ",
"                                                                                                                                ",
"                                                                                                                                ",
"                                                                                                                                ",
"                                                                                                                                ",
"                                                                                                                                ",
"                                                                                                                                ",
"                                                                                                                                ",
"                                                                                                                                ",
"                                                                                                                                ",
"                                                                                                                                ",
"                                                                                                                                ",
"                                                                                                                                ",
"                                                                                                                                ",
"                                                                                                                                ",
"                                                                                                                                ",
"                                                                                                                                ",
"                                                                                                                                ",
"                                                                                                                                ",
"                                                                                                                                ",
"                                                                                                                                ",
"                                                                                                                                ",
"                                                                                                                                ",
"                                                                                                                                ",
"                                                                                                                                ",
"                                                                                                                                ",
"                                                              $$$$$$$$                                                          ",
"                                                            $$,$$$$$$,$$                                                        ",
"                                                           $,,,$#@@#$,,,$                                                       ",
"                                                          $,,,$#@@@@#$,,,$                                                      ",
"                                                          $,,,$#@@@@#$,,,$                                                      ",
"                                                          <,,$#@@@@@@#$,,<                                                      ",
"                                                          $,,$#@@@@@@#$,,$                                                      ",
"                                                          $,<$#@@@@@@#$<,$                                                      ",
"                                                         $$,<$#$,,,,$#$<,$$                                                     ",
"                                                         $$$<<<111111<<<$$$                                                     ",
"                                                         $$<112333333211<$$                                                     ",
"                                                        $#..oO=--oo--=O...#$                                                    ",
"                                                       $@..o+&ap+oo+pa&+o..@$                                                   ",
"                                                       ....+55**4e7>**55+....                                                   ",
"                                                       ....*0tgu4r74ugt0*....                                                   ",
"                                                       ....%qtuw,,45wutq%....                                                   ",
"                                                        ....:etw,,@&wte4....                                                    ",
"                                                          ..:76dlld@685&..                                                      ",
"                                                        7qw..:<d..d$64:..qrr                                                    ",
"                                                    rrr77qw..&<1..1<::&..qqqqrwr                                                ",
"                                                   wrqwe88q;..#<$$<#&&..%q8886qtw                                               ",
"                                                 wr877*5>>7q..##@@##e7..87>85*7ttr8                                             ",
"                                                wqqe7&oo:*477...##..8e7.:**8oo&7qqq8                                            ",
"                                              ;>60reyyyyrr84444.#%>rjjtw%5qryyurur8>>;                                          ",
"                                              ;>6rwqqwyrw8499gyt5qijww7wgq4qrrwq79q8;;                                          ",
"                                             *&*>77680er847eeye5&tiyijturr640008756:*&*                                         ",
"                                             *&*>:>4567r;6qeegtw5&&09w7wur6;97654>::&&*                                         ",
"                                             *&*;:>4567q;4699ge6&9iyyjturr4;77654>:;&&*                                         ",
"                                             ***;:>>>>47&&566rgq&&&89w7ww7;*44>>>>:;%%*                                         ",
"                                              +;;;;;;;;4&+;77re0:*7wihrw04+&4;;;;;;;%+                                          ",
"                                               +&&&&&&&&4&+;;5q0:*&49q90:&&4>444>>;&+                                           ",
"                                                +++ooooooo+&&&;;%%%%%**&&%ooooooo+++                                            ",
"                                                  4%&&+;;+&>>59978&q7>9>:;o*%+oo+                                               ",
"                                                  4;57;::*:>>9qq+7;q9>8>00&74>oo                                                ",
"                                                  >>87>05>6:>9qq75>q9:6>87>74;o+                                                ",
"                                                  >>95>8>>4:>89974>q9:4;>6*4;+o+                                                ",
"                                                   >05>>>>>:>5::+:;q9:>*>>*;*o+                                                 ",
"                                                   >wq8555*:*4;;*:&95;***;;;+;o                                                 ",
"                                                   >8wq854;*%*444&*55:;>>*:>o;o                                                 ",
"                                                    :6wq98>;*%%%ooo;5>;;>%:>oo+                                                 ",
"                                                    *:565>*+****+++>>>**%%%oo+                                                  ",
"                                                    ...........dddd...........                                                  ",
"                                                    ...........kfd2...........                                                  ",
"                                                    ...........fdd1...........                                                  ",
"                                                    w05>>47776>>**>>9q008:44+o                                                  ",
"                                                   ww05>5999986>*%>>90086:;4+oo                                                 ",
"                                                  wtyyyytq0qq06>*%>599978:::;++                                                 ",
"                                                  wyyyyyrq0qq06>*%>5999784>5;&++                                                ",
"                                                 wtyyyytq0qqq06>*%>599978656;&++                                                ",
"                                                 wtyyyytq0qqq06>%%>599998657;&++o                                               ",
"                                                wtyyyyyrq0qqq06*+o*599998867:&++o                                               ",
"                                                wtyyyytq0qqqq8>+oo%609998865:&++o                                               ",
"                                                wtyyyyrq0qqq8>*oo%%%60098886:&++oo                                              ",
"                                                wtyyyyq0qqq8>;oo%%%%%60009765>*;%o                                              ",
"                                                6655>>>>>>>>;oo%%&%%%%%%%%%%%%%%oo                                              ",
"                                                qqqqqq8854:;%o%%&*%%;>58800ww4:&%o                                              ",
"                                                00qqtyw8995:;%%+o++*;:9wrrtgu7:%+o                                              ",
"                                               0000ryuw80q8>;%%o  %*;79wrtugu4*+++                                              ",
"                                               999qyuuw80q84;%oo   *;79qrtugg4%+oo%                                             ",
"                                               99qtuiuw80q84;%oo   &;69qrtigg4%ooo%                                             ",
"                                              99qruiiu889084;%o     *5699tigg66*oo%                                             ",
"                                              9qwtiiir78798>*%o     ***59tigg866*o*;                                            ",
"                                              8wryiir955776>*o       *>8wtuigw886:;:                                            ",
"                                              0ryiguw5:>575;%o       >8wqquigg88884:                                            ",
"                                             80ruigu8*:>>4:%%o       8qq0quigg066884                                            ",
"                                             0wruigu5*;:>;&++        699>ruigge54688*                                           ",
"                                             0wruigi5**5*&&+%        :5>>ruuige54448*                                           ",
"                                            78wruigi;;>5*+++%        :;*8rtuigt*>:>5*                                           ",
"                                            78wruige*;47*+++%        &%>ertyiyt**;::+                                           ",
"                                            77qrtui7*:>47*%+          589eerrye4%***+                                           ",
"                                           >4>9qttt4;>444:*%          4680e0wye6o%%%o                                           ",
"                                           >:>59008**>44:;*           :>68668qq5ooo%%                                           ",
"                                           *;:>4687**;;***%            ::4444464&%&**                                           ",
"                                           &&*:>>>>*;*%+%*%            &&&&::57q7:@@                                            ",
"                                            @++&>75%&&+o%%              @@#$@@.....@                                            ",
"                                            @@@@@@@@@@@@o               @##$$@.....@                                            ",
"                                            $$$@....@$#@                @##$,@.....@                                            ",
"                                            <,$@....@,#@                 @#$$@.....@                                            ",
"                                            <,$@....@,##                 @#$#@....@@                                            ",
"                                            ,,$@....@$#                  @##$$....@                                             ",
"                                            $$$@....@##                   @#$,.....                                             ",
"                                             $$@....@@#                   @#$$@.....                                            ",
"                                              ,#X...@#                     @#$@.....@                                           ",
"                                             ,$@....@#                     @#,#@@@...                                           ",
"                                             @$@@..@@#                      @,2<@....                                           ",
"                                            @$#@...@$##                    @$,,@.....@                                          ",
"                                           $#$@....@#@#                    $<<,@@X....@                                         ",
"                                          @@$@.....#..#                    $<$<2,$@@.@@@                                        ",
"                                         @@#@@X.......#                    @#.,1<#@....@.                                       ",
"                                         @...X@@@....                      @..@,1s1<$..@.                                       ",
"                                         @..........                         ..@$<$$@@@@.                                       ",
"                                          .........                           .@$<@@@@@@.                                       "
};
