/* XPM */
static char *_555661d000b4a8f9f9476f5433ef99a[] = {
/* columns rows colors chars-per-pixel */
"64 64 39 1 ",
"  c black",
". c black",
"X c #980000",
"o c #FC0000",
"O c #EC0000",
"+ c #FC9C9C",
"@ c #FC5454",
"# c #FC5C5C",
"$ c #FCFC54",
"% c gray66",
"& c #7C7C7C",
"* c gray55",
"= c #D0D0D0",
"- c #B4B4B4",
"; c #484848",
": c #2C2C2C",
"> c #989898",
", c #646464",
"< c gray33",
"1 c gray44",
"2 c #202020",
"3 c #202020",
"4 c #A86840",
"5 c #F0945C",
"6 c #B47044",
"7 c #FCB080",
"8 c #543C1C",
"9 c #FCA470",
"0 c #FCC4A4",
"q c #FCD8C4",
"w c #C87C4C",
"e c #744C28",
"r c #80502C",
"t c #E88C58",
"y c #DC8854",
"u c #FCB890",
"i c #FC9C60",
"p c #A0643C",
"a c black",
/* pixels */
"                                                               .",
"                                                               .",
"                                                               .",
"                                                               .",
"                                                               .",
"                                                               .",
"                                                               .",
"                                                               .",
"                                                               .",
"                                                               .",
"                                                               .",
"                                                               .",
"                                                               .",
"                                                               .",
"                                                               .",
"                                                               .",
"                                                               .",
"                                                               .",
"                                                               .",
"                                                               .",
"                                                               .",
"                                                               .",
"                                                               .",
"                                                               .",
"                                                               .",
"                                                               .",
"                                                               .",
"                                                               .",
"                                                               .",
"                                                               .",
"                                                               .",
"                                                               .",
"                                                               .",
"                                                               .",
"                                                               .",
"                               X                               .",
"                              XoX                              .",
"                           o  O+O  o                           .",
"                            @##+##@                            .",
"                            O++$+@O                            .",
"                           X@$%&%$@O                           .",
"                          X#+%*=*%+#X                          .",
"                           XO&-=-&OX                           .",
"                             ;-=-;                             .",
"                            &&;&;&&                            .",
"                           :&>:::,&<                           .",
"                           :&%1&1,&;                           .",
"                           :&%>>>,&:                           .",
"                           :;>%%%;;2                           .",
"                           :3&;;;2324                          .",
"                          5:3,:::23246                         .",
"                         5773,:::23846                         .",
"                         90qw222233e666                        .",
"                         97qqwrrr6ttyw6                        .",
"                        977qqqq0u79tty6                        .",
"                        97t7qqq0u79ityw                        .",
"                        979t777779iityw                        .",
"                        577ii77799iityw                        .",
"                        >>>%%w55555>>>&&                       .",
"                       >%%>*1,44p,>%%>>&,                      .",
"                      >%%>>&1,<;,&*%%>>>&,                     .",
"                     >%%>>&&1,<<,&*>***>>,<                    .",
"                     &&>>&1,,,<<,&,&>%%>>&,;                   .",
"                    ->%%>>&&1,<<,,,>>>%%>&,;;                  ."
};
