/* XPM */
static char *_780012113e64e809d6565a089c200b2OSwxBqtiZPnJImXT[] = {
/* columns rows colors chars-per-pixel */
"128 128 58 1 ",
"  c None",
". c #070000",
"X c #070000",
"o c #0B0000",
"O c #0F0000",
"+ c #1B0700",
"@ c gray12",
"# c #2B230F",
"$ c #3B2F17",
"% c #232323",
"& c #2F2F2F",
"* c #373737",
"= c gray23",
"- c #43331B",
"; c #4B3B1B",
": c #573F1F",
"> c #5F4323",
", c #6F4B27",
"< c #774F2B",
"1 c #434343",
"2 c #4B4B4B",
"3 c gray34",
"4 c #5B5B5B",
"5 c #676767",
"6 c gray45",
"7 c #7B7B7B",
"8 c gray50",
"9 c #83532F",
"0 c #875333",
"q c #8B5B33",
"w c #935F37",
"e c #9F633B",
"r c #A3673F",
"t c #AB6B43",
"y c #B77347",
"u c #BF7B4B",
"i c #C3774B",
"p c #CB7F4F",
"a c #D38353",
"s c #DF8B57",
"d c #EB8F5B",
"f c #F3975F",
"g c #FF9F63",
"h c #EBA377",
"j c #FFA773",
"k c gray56",
"l c #9B9B9B",
"z c gray67",
"x c #B7B7B7",
"c c #FFB383",
"v c #EFBB9B",
"b c #FFBF9F",
"n c #FFC7A7",
"m c #FFCFB3",
"M c #C3C3C3",
"N c LightGray",
"B c #DFDFDF",
"V c #FFDBC7",
/* pixels */
"                                                                                                                                ",
"                                                                                                                                ",
"                                                                                                                                ",
"                                                                                                                                ",
"                                                                                                                                ",
"                                                                                                                                ",
"                                                                                                                                ",
"                                                                                                                                ",
"                                                                                                                                ",
"                                                                                                                                ",
"                                                                                                                                ",
"                                                                                                                                ",
"                                                                                                                                ",
"                                                                                                                                ",
"                                                                                                                                ",
"                                                                                                                                ",
"                                                                                                                                ",
"                                                                                                                                ",
"                                                                                                                                ",
"                                                                                                                                ",
"                                                                                                                                ",
"                                                                                                                                ",
"                                                                                                                                ",
"                                                                                                                                ",
"                                                                                                                                ",
"                                                                                                                                ",
"                                                                                                                                ",
"                                                                                                                                ",
"                                                                                                                                ",
"                                                                                                                                ",
"                                                                                                                                ",
"                                                                                                                                ",
"                                                                                                                                ",
"                                                                                                                                ",
"                                                                                                                                ",
"                                                                                                                                ",
"                                                                                                                                ",
"                                                                                                                                ",
"                                                                                                                                ",
"                                                                                                                                ",
"                                                                                                                                ",
"                                                                                                                                ",
"                                                                                                                                ",
"                                                                                                                                ",
"                                                                                                                                ",
"                                                                                                                                ",
"                                                                                                                                ",
"                                                                                                                                ",
"                                                                                                                                ",
"                                                                                                                                ",
"                                                                                                                                ",
"                                                                                                                                ",
"                                                                                                                                ",
"                                                                                                                                ",
"                                                                                                                                ",
"                                                                                                                                ",
"                                                                                                                                ",
"                                                                                                                                ",
"                                                                                                                                ",
"                                                                                                                                ",
"                                                                                                                                ",
"                                                                                                                                ",
"                                                                                                                                ",
"                                                                                                                                ",
"                                                                                                                                ",
"                                                                                                                                ",
"                                                                                                                                ",
"                                                                                                                                ",
"                                                                                                                                ",
"                                                                                                                                ",
"                                                                                                                                ",
"                                                                                                                                ",
"                                                                  8*                                                            ",
"                                                                  *.                                                            ",
"                                                                @*@@@@                                                          ",
"                                                              @;62#@%*&@                                                        ",
"                                                             @15k5#@%=*&@                                                       ",
"                                                             *1&#@@@@#&&&                                                       ",
"                                                            *&@@......@#&@                                                      ",
"                                                            %@o.%&*%%@..##                                                      ",
"                                                            %..=*1=%@##..#                                                      ",
"                                                            ..*6342&%#&#O.                                                      ",
"                                                            .&2k632*&#&*#.                                                      ",
"                                                            .24x742**#&=#O                                                      ",
"                                                            #25lx:2%8>#=#O                                                      ",
"                                                            *276..=%..#&#O                                                      ",
"                                                        @@&=*64%.......*&#2=&%                                                  ",
"                                                       @&&=&5k841--&%@#&&#&=@@.                                                 ",
"                                                       @&&*&6Nzlx52=%%##&#&2#@.                                                 ",
"                                                     *46Bz*&48lk62*%@@@@##&4=@.                                                 ",
"                                                    *-2336-=8xNl83=&%%@.@&15%l5*                                                ",
"                                                    :.@@&@@2kBl1.........@=2%53==                                               ",
"                                                     @@1l1%2kN1x43=*&##O..%=@%@@&                                               ",
"                                                     %%&5%*1lx.6=*&##@@%..o#%@.@#                                               ",
"                                                     1*@1*%*8x.4##O@...@..o##@@@#                                               ",
"                                                      @..2%246@*.......X...Oo&..                                                ",
"                                                      ;@@1&355&............#.=..                                                ",
"                                                      %*%*%l63&...........O%.*..                                                ",
"                                                      -@@%@Ml641**&#......#&@&..                                                ",
"                                                     0%4&=@N83=&%%#......O#*.#..scccjs                                          ",
"                                                   wr&-@@2+z51*%%O......O##&.#..fccccjs                                         ",
"                                                 wruu%282*@232=&%%oo.O.%##&%.#..rrpcbcfp                                        ",
"                                               wryupu$@%*&+$452=====&%%##&#@.O..>0dcbbjs                                        ",
"                                              wrypasyq.@&%&+%;26322==*$$#O@o...@;,dcbbcjp                                       ",
"                                             wrtyupsss0@.%1*&@................@##,ednnbjs                                       ",
"                                            wrwrtsjcccs0@@%425@@%.@@.......,,###usjnVVncj                                       ",
"                                            werrscjggccfe@%&5l%2l@=*.X...,epyq#ujcmbjgjbjs                                      ",
"                                           wweescjfddgjcgw:@#5.*2.2%...,epyyr9ucccjffdsdfg                                      ",
"                                           wersjfdaaadfjjgw:;-#-$@...:9yyte99pccjffsspuusfp                                     ",
"                                          eussafdapppssfjcjsw::####,9yyte99rsbbjffdaapyyusp                                     ",
"                                         uupafyyayrupssdgjcbbjft000yttww9pfabcjffdaaaapyypt                                     ",
"                                         usfsywqarwtuuddgccfadfjft00000pfasccjfsaauppapyyte                                     ",
"                                         euyyrq,q:99tyudgcfuupasfjfaurrpfcjjfdaapuyyupyyteq                                     ",
"                                          ettq,;#:<99wysgguyyupasfgjgfsssssaapppuyyyuyttwq9                                     ",
"                                         qrq9<;#$#<e99eafduyyyupasffgjjgfsapuuyyyyyuyttew999                                    ",
"                                         qreww9>;-$#e9wadsauyyyyupasffjjjgfsapyyyyyytrew999,                                    ",
"                                        qrypaut<>;-$#wwusddsuyyyyyupassssssssapuuuutrewq9q9>                                    ",
"                                        qrypaaue<>::-0wydgfdsuyyyyyyyypppppppaappuyrewq99<,>                                    ",
"                                        rypsfddpe<,>>-etdjgfdsuytttttyyyyyyuuppsdfpewq99q,>                                     ",
"                                       qrypdgcjfaie9,>0ragjgfspuyteeerrtyyyyyuppfjfpr99q9,>                                     ",
"                                       rypsfgjjjfaie<>;epfcjgsaitewwwrrttyyyyyyupdsaprqq,>>                                     ",
"                                       rypdgjjjjgdaiw,;0ufccgdaureqqwrrttyuuyyuuupsiyur9,>>                                     ",
"                                      qypsfgjjjjgdsitw:>ydccjdayeq90qwrttyppiupassshareq>>                                      ",
"                                      rypsgjjjjjgdsiyr,;raccjfayeq990qwrtyuppiaasfghhatw>,                                      ",
"                                      ypsfgjjjjggdaiit0;0igjgfsyeq9990qertyuuppassfghcar,9                                      ",
"                                     rypsfggjgggdspiyt0;>taggdsywq9<<<0qertyupppassfgjca9:                                      ",
"                                     yppdffgggfdsaiiyi0$;0tpssaptwq9,,<0qertyyupiassfgjva;                                      ",
"                                    rypsdfdddddsaiiiy0$$$><yupppytwq<>,<0qertyyuppassfgjva                                      "
};
