/* XPM */
static char *_ffaadd5750f4ad2855b89a2e6d80e32Dj2Z3aPvGIGtW4K8[] = {
/* columns rows colors chars-per-pixel */
"64 64 69 1 ",
"  c black",
". c #376E37",
"X c #43A047",
"o c #439F47",
"O c #43A048",
"+ c #42A048",
"@ c #43A147",
"# c #44A048",
"$ c #43A148",
"% c #43A045",
"& c #44A148",
"* c #373737",
"= c #44A047",
"- c #003700",
"; c #439E47",
": c #449F48",
"> c #42A246",
", c #459F48",
"< c #42A148",
"1 c #439F48",
"2 c #43A047",
"3 c #43A047",
"4 c #43A047",
"5 c #43A047",
"6 c #43A047",
"7 c #43A047",
"8 c #43A047",
"9 c #43A047",
"0 c #43A047",
"q c #43A047",
"w c #43A047",
"e c #43A047",
"r c #43A047",
"t c #43A047",
"y c #43A047",
"u c #43A047",
"i c #43A047",
"p c #43A047",
"a c #43A047",
"s c #43A047",
"d c None",
"f c #43A047",
"g c #43A047",
"h c #43A047",
"j c #43A047",
"k c #43A047",
"l c #43A047",
"z c #43A047",
"x c #43A047",
"c c #43A047",
"v c #43A047",
"b c #43A047",
"n c #43A047",
"m c #43A047",
"M c #43A047",
"N c #43A047",
"B c #43A047",
"V c #43A047",
"C c #43A047",
"Z c #43A047",
"A c #43A047",
"S c #43A047",
"D c #43A047",
"F c #43A047",
"G c #43A047",
"H c #43A047",
"J c #43A047",
"K c #43A047",
"L c white",
/* pixels */
"                        .XoXXXXXXXXXXOX.                        ",
"                     X+XXXX2345665432XXXX@X                     ",
"                  XXXXX37890qwerrewty9873XXXXX                  ",
"                XXXXuipasdKKKKKKKKKKKKdsfpiuXXXX                ",
"              XXXXghjkKKKKKKKKKKKKKKKKKKKKklhgXXXX              ",
"             XXXzxcvKKKKKKKKKKKKKKKKKKKKKKKKvcxzXXX             ",
"           #XXXbnmKKKKKKKKKKKKKKKKKKKKKKKKKKKKMnbXXX@           ",
"          XXXzNrKKKKKKKKKKKKKKKKKKKKKKKKKKKKKKKKrNzXXX          ",
"         XXXBVvKKKKKKKKKKKKKKKKKKKKKKKKKKKKKKKKKKvVBXXX         ",
"        XXXCZKKKKKKKKKKKKKKKKKKKKKKKKKKKKKKKKKKKKKKZCXXX        ",
"       XXX7AKKKKKKKKKKKKKKKKKKKKKKKKKKKKKKKKKKKKKKKKA7XXX       ",
"      $XXCAKKKKKKKKKKKKKKKKKKKKKKKKKKKKKKKKKKKKKKKKKKACXX$      ",
"      XXBZKKKKKKKKKKKKKKKKKKKKKKKKKKKKKKKKKKKKKKKKKKKKZBXX      ",
"     XXzVKKKKKKKKKKKKKKKKKKKKKKKKKKKKKKKKKKKKKKKKKKKKKKVzXX     ",
"    XXXNvKKKKKKKKKKKKKKKKKKKKKKKKKKKKKKKKKKKKKKKKKKKKKKvNXXX    ",
"    XXbrKKKKKKKKKKKKKKKKKKKKKKKKKKKKKKKKKKKKKKKKKKKKKKKKrbXX    ",
"   XXznKKKKKKKKKKKKKKKKKKKKKKKKKKKKKKKKKKKKKKKKKKKKKKKKKKnzXX   ",
"   XXxMKKKKKKKKKKKKKKKKKKKKKKKKKKKKKKKKKKKKKKKKKKKKKKKKKKMxXX   ",
"  XXgcKKKKKKKKKKKKKKKKKKKKKKKKKKKKKKKKKKKKKKKKKKKKKKKKKKKKcgXX  ",
"  XXhvKKKKKKKKKKKKKKKKKKKKKKKKKKKKKKKKKKKKKKKKKKKKKKKKKKKKvhXX  ",
"  XujKKKKKKKKKKKKKKKKKKKKKKKKKKKKKKKKKKKKKKKKKKKKKKKKKKKKKKjuX  ",
" XXikKKKKKKKKKKKKKKKKKKKKKKKKKKKKKKKKKKKKKKKKKKKKKKKKKKKKKKkiXX ",
" %XpKKKKKKKKKKKKKKKKKKKKKKKKKKKKKKKKKKKKKKKKKKKKKKKKKKKKKKKKpX& ",
" X3fKKKKKKKKKKKKKKKKKKKKKKKKKKKKKKKKKKKKKKKKKKKKKKKKKKKKKKKKa3X ",
".X7sKKKKKKKKKKKKKKKKKKKKKKKKKKKKKKKKKKKKKKKKKKKKKKKKKKKKKKKKs7X*",
"XX8dKKKKKKKKKKKKKKKKKKKKKKKKKKKKKKKKKKKKKKKKKKKKKKKKKKKKKKKKd8XX",
"XX9KKKKKKKKKKKKKKKKKKKKKKKKKKKKKKKKKKKKKKKKKKKKKKKKKKKKKKKKKK9XX",
"X20KKKKKKKKKKKKKKKKKKKKKKKKKKKKKKKKKKKKKKKKKKKKKKKKKKKKKKKKKK02X",
"X3qKKKKKKKKKKKKKKKKKKKKKKKKKKKKKKKKKKKKKKKKKKKKKKKKKKKKKKKKKKq3X",
"X4wKKKKKKKKKKKKKKKKKKKKKKKKKKKKKKKKKKKKKKKKKKKKKKKKKKKKKKKKKKw4X",
"X5SKKKKKKKKKKKKKKKKKKKKKKKKKKKKKKKKKKKKKKKKKKKKKKKKKKKKKKKKKKe5X",
"X6rKKKKKKKKKKKKKKKKKKKKKKKKKKKKKKKKKKKKKKKKKKKKKKKKKKKKKKKKKKr6X",
"X6rKKKKKKKKKKKKKKKKKKKKKKKKKKKKKKKKKKKKKKKKKKKKKKKKKKKKKKKKKKr6X",
"X5eKKKKKKKKKKKKKKKKKKKKKKKKKKKKKKKKKKKKKKKKKKKKKKKKKKKKKKKKKKe5X",
"X4wKKKKKKKKKKKKKKKKKKKKKKKKKKKKKKKKKKKKKKKKKKKKKKKKKKKKKKKKKKw4X",
"X3qKKKKKKKKKKKKKKKKKKKKKKKKKKKKKKKKKKKKKKKKKKKKKKKKKKKKKKKKKKq3X",
"X20KKKKKKKKKKKKKKKKKKKKKKKKKKKKKKKKKKKKKKKKKKKKKKKKKKKKKKKKKK02X",
"=X9KKKKKKKKKKKKKKKKKKKKKKKKKKKKKKKKKKKKKKKKKKKKKKKKKKKKKKKKKK9XX",
"XX8dKKKKKKKKKKKKKKKKKKKKKKKKKKKKKKKKKKKKKKKKKKKKKKKKKKKKKKKKd8XX",
"*X7sKKKKKKKKKKKKKKKKKKKKKKKKKKKKKKKKKKKKKKKKKKKKKKKKKKKKKKKKs7X-",
" X3fKKKKKKKKKKKKKKKKKKKKKKKKKKKKKKKKKKKKKKKKKKKKKKKKKKKKKKKKa3X ",
" $XpKKKKKKKKKKKKKKKKKKKKKKKKKKKKKKKKKKKKKKKKKKKKKKKKKKKKKKKKpX; ",
" XXikKKKKKKKKKKKKKKKKKKKKKKKKKKKKKKKKKKKKKKKKKKKKKKKKKKKKKKkiXX ",
"  XujKKKKKKKKKKKKKKKKKKKKKKKKKKKKKKKKKKKKKKKKKKKKKKKKKKKKKKjuX  ",
"  XXhvKKKKKKKKKKKKKKKKKKKKKKKKKKKKKKKKKKKKKKKKKKKKKKKKKKKKvxXX  ",
"  XXgcKKKKKKKKKKKKKKKKKKKKKKKKKKKKKKKKKKKKKKKKKKKKKKKKKKKKcgXX  ",
"   XXxMKKKKKKKKKKKKKKKKKKKKKKKKKKKKKKKKKKKKKKKKKKKKKKKKKKmDXX   ",
"   XXznKKKKKKKKKKKKKKKKKKKKKKKKKKKKKKKKKKKKKKKKKKKKKKKKKKnzXX   ",
"    XXbrKKKKKKKKKKKKKKKKKKKKKKKKKKKKKKKKKKKKKKKKKKKKKKKKrbXX    ",
"    XXXNvKKKKKKKKKKKKKKKKKKKKKKKKKKKKKKKKKKKKKKKKKKKKKKvNXXX    ",
"     XXzVKKKKKKKKKKKKKKKKKKKKKKKKKKKKKKKKKKKKKKKKKKKKKKVzXX     ",
"      XXBZKKKKKKKKKKKKKKKKKKKKKKKKKKKKKKKKKKKKKKKKKKKKZBXX      ",
"      :XXCAKKKKKKKKKKKKKKKKKKKKKKKKKKKKKKKKKKKKKKKKKKACXX&      ",
"       XXX7AKKKKKKKKKKKKKKKKKKKKKKKKKKKKKKKKKKKKKKKKA7XXo       ",
"        XXXCFKKKKKKKKKKKKKKKKKKKKKKKKKKKKKKKKKKKKKKZCXXX        ",
"         XXXBVvKKKKKKKKKKKKKKKKKKKKKKKKKKKKKKKKKKvVBXXX         ",
"          XXXzGrKKKKKKKKKKKKKKKKKKKKKKKKKKKKKKKKrNzXXX          ",
"           >XXXbnmKKKKKKKKKKKKKKKKKKKKKKKKKKKKMnbXXX,           ",
"             XXXzDfvKKKKKKKKKKKKKKKKKKKKKKKKvcxzXXX             ",
"              OXXXgxjkKKKKKKKKKKKKKKKKKKKKkjhgXXXX              ",
"                XXXXuiHaJdKKKKKKKKKKKKdsfpiuXXXX                ",
"                  XXXXX37890qwerrewq09873XXXXX                  ",
"                     X<XXXX2345665432XXXX,X                     ",
"                        -X1XXXXXXXXXXXX-                        "
};
