/* XPM */
static char *a7f470b41902468ffb8c0247757022ef7s2s7ob521sAAUwt[] = {
/* columns rows colors chars-per-pixel */
"64 64 44 1 ",
"  c None",
". c gray11",
"X c gray22",
"o c #282828",
"O c #4C4C4C",
"+ c gray36",
"@ c #202020",
"# c #7C7C7C",
"$ c gray44",
"% c black",
"& c #2C2C2C",
"* c #646464",
"= c #FCD4BC",
"- c gray55",
"; c #FCB080",
": c #FCC4A4",
"> c #D08050",
", c #FCB890",
"< c #989898",
"1 c #E88C58",
"2 c #BC7848",
"3 c #DC8854",
"4 c gray25",
"5 c #484848",
"6 c gray33",
"7 c #343434",
"8 c #A86840",
"9 c #FCA470",
"0 c #905C34",
"q c #A0643C",
"w c #382C14",
"e c #885830",
"r c #B47044",
"t c #C87C4C",
"y c #FCD8C4",
"u c #483818",
"i c #FCBC9C",
"p c #FCCCB0",
"a c #B4B4B4",
"s c #F0945C",
"d c #744C28",
"f c #543C1C",
"g c #80502C",
"h c #53514E",
/* pixels */
"                                                                ",
"                                                                ",
"                                                                ",
"                                                                ",
"                                                                ",
"                                                                ",
"                                                                ",
"                                                                ",
"                                                                ",
"                                                                ",
"                                                                ",
"                                                                ",
"                                                                ",
"                                                                ",
"                                                                ",
"                                                                ",
"                                                                ",
"                                                                ",
"                                                                ",
"                                .                               ",
"                               XoX                              ",
"                              O+@#O                             ",
"                              .#@$X                             ",
"                             .o%.%..                            ",
"                             %%%%%%%                            ",
"                             %&$#*o%                            ",
"                           =%@-##--%%                           ",
"                          ;:.+####-O%                           ",
"                         >>,.$$$##<*%                           ",
"                        123;.O$$$##4%                           ",
"                       >223;%@56O+5.%                           ",
"                       >2>1;%%@777@%%                           ",
"                       8>>90q%%%.%%%ww                          ",
"                       82>90qXX@%*6#<<                          ",
"                      e839:0r#<66464X6-                         ",
"                     82t9:y0r#644XoXuo6-                        ",
"                    r>9,ipy0qX64$X@4uwo6-a                      ",
"                   >>9,:yyp00e4XXX.uuw%X6#                      ",
"                 2199,pyyyp;00eo@.uuu8%XX6                      ",
"                39,,:=yyyypse00edffuu8r                         ",
"               3,,,:pyyyyps;;e00eduudrr                         ",
"             339,ipyyyyyp:9:y9tgggrt13tr                        ",
"            >39,iiyyyyyyp98;yyyy:,;9113r                        ",
"                                                                ",
"                                                                ",
"                                                                ",
"                                                                ",
"                                                                ",
"                                                                ",
"                                                                ",
"                                                                ",
"                                                                ",
"                                                                ",
"                                                                ",
"                                                                ",
"                                                                ",
"                                                                ",
"                                                                ",
"                                                                ",
"                                                                ",
"                                                                ",
"                                                                ",
"                                                                ",
"                                                                "
};
